<svg width="64" height="64" viewBox="0 0 64 64" fill="none" xmlns="http://www.w3.org/2000/svg">
<rect width="64" height="64" rx="8" fill="url(#gradient)"/>
<path d="M16 32l20-12 12-12v-8a8 8 0 0 0 8-8h12a8 8 0 0 0 8 8v12l-12 12-20 12zm16 0h12a4 4 0 0 1-4 4v4a4 4 0 0 1-4-4h-8v-4a4 4 0 0 1 4-4z" fill="white"/>
<defs>
<linearGradient id="gradient" x1="0%" y1="0%" x2="100%" y2="100%">
<stop offset="0%" style="stop-color:#667eea"/>
<stop offset="100%" style="stop-color:#764ba2"/>
</linearGradient>
</defs>
</svg>